TITLE ""
FILE "Disc1Track56.mp3" MP3
  TRACK 01 AUDIO
    TITLE "Disc1Track56_01"
    INDEX 01 00:00:00
  TRACK 02 AUDIO
    TITLE "Disc1Track56_02"
    INDEX 01 00:04:22
  TRACK 03 AUDIO
    TITLE "Disc1Track56_03"
    INDEX 01 00:04:39
  TRACK 04 AUDIO
    TITLE "Disc1Track56_04"
    INDEX 01 00:06:74
  TRACK 05 AUDIO
    TITLE "Disc1Track56_05"
    INDEX 01 00:10:62
  TRACK 06 AUDIO
    TITLE "Disc1Track56_06"
    INDEX 01 00:13:21
  TRACK 07 AUDIO
    TITLE "Disc1Track56_07"
    INDEX 01 00:13:52
  TRACK 08 AUDIO
    TITLE "Disc1Track56_08"
    INDEX 01 00:15:27
  TRACK 09 AUDIO
    TITLE "Disc1Track56_09"
    INDEX 01 00:17:71
  TRACK 10 AUDIO
    TITLE "Disc1Track56_10"
    INDEX 01 00:19:45
  TRACK 11 AUDIO
    TITLE "Disc1Track56_11"
    INDEX 01 00:23:51
  TRACK 12 AUDIO
    TITLE "Disc1Track56_12"
    INDEX 01 00:24:07
  TRACK 13 AUDIO
    TITLE "Disc1Track56_13"
    INDEX 01 00:25:36
  TRACK 14 AUDIO
    TITLE "Disc1Track56_14"
    INDEX 01 00:28:05
  TRACK 15 AUDIO
    TITLE "Disc1Track56_15"
    INDEX 01 00:29:34
  TRACK 16 AUDIO
    TITLE "Disc1Track56_16"
    INDEX 01 00:31:52
  TRACK 17 AUDIO
    TITLE "Disc1Track56_17"
    INDEX 01 00:32:08
  TRACK 18 AUDIO
    TITLE "Disc1Track56_18"
    INDEX 01 00:33:35
  TRACK 19 AUDIO
    TITLE "Disc1Track56_19"
    INDEX 01 00:36:28
  TRACK 20 AUDIO
    TITLE "Disc1Track56_20"
    INDEX 01 00:37:53
  TRACK 21 AUDIO
    TITLE "Disc1Track56_21"
    INDEX 01 00:42:54
  TRACK 22 AUDIO
    TITLE "Disc1Track56_22"
    INDEX 01 00:43:10
  TRACK 23 AUDIO
    TITLE "Disc1Track56_23"
    INDEX 01 00:44:31
  TRACK 24 AUDIO
    TITLE "Disc1Track56_24"
    INDEX 01 00:45:34
  TRACK 25 AUDIO
    TITLE "Disc1Track56_25"
    INDEX 01 00:46:55
  TRACK 26 AUDIO
    TITLE "Disc1Track56_26"
    INDEX 01 00:52:01
  TRACK 27 AUDIO
    TITLE "Disc1Track56_27"
    INDEX 01 00:52:33
  TRACK 28 AUDIO
    TITLE "Disc1Track56_28"
    INDEX 01 00:53:67
  TRACK 29 AUDIO
    TITLE "Disc1Track56_29"
    INDEX 01 00:54:49
  TRACK 30 AUDIO
    TITLE "Disc1Track56_30"
    INDEX 01 00:56:11
  TRACK 31 AUDIO
    TITLE "Disc1Track56_31"
    INDEX 01 00:56:44
  TRACK 32 AUDIO
    TITLE "Disc1Track56_32"
    INDEX 01 00:57:71
  TRACK 33 AUDIO
    TITLE "Disc1Track56_33"
    INDEX 01 00:59:09
  TRACK 34 AUDIO
    TITLE "Disc1Track56_34"
    INDEX 01 01:00:38
  TRACK 35 AUDIO
    TITLE "Disc1Track56_35"
    INDEX 01 01:01:00
  TRACK 36 AUDIO
    TITLE "Disc1Track56_36"
    INDEX 01 01:02:41
  TRACK 37 AUDIO
    TITLE "Disc1Track56_37"
    INDEX 01 01:04:28
  TRACK 38 AUDIO
    TITLE "Disc1Track56_38"
    INDEX 01 01:05:69
  TRACK 39 AUDIO
    TITLE "Disc1Track56_39"
    INDEX 01 01:06:29
  TRACK 40 AUDIO
    TITLE "Disc1Track56_40"
    INDEX 01 01:07:73
  TRACK 41 AUDIO
    TITLE "Disc1Track56_41"
    INDEX 01 01:10:01
  TRACK 42 AUDIO
    TITLE "Disc1Track56_42"
    INDEX 01 01:11:46
  TRACK 43 AUDIO
    TITLE "Disc1Track56_43"
    INDEX 01 01:15:14
  TRACK 44 AUDIO
    TITLE "Disc1Track56_44"
    INDEX 01 01:15:43
  TRACK 45 AUDIO
    TITLE "Disc1Track56_45"
    INDEX 01 01:16:66
  TRACK 46 AUDIO
    TITLE "Disc1Track56_46"
    INDEX 01 01:18:59
  TRACK 47 AUDIO
    TITLE "Disc1Track56_47"
    INDEX 01 01:20:05
  TRACK 48 AUDIO
    TITLE "Disc1Track56_48"
    INDEX 01 01:23:51
  TRACK 49 AUDIO
    TITLE "Disc1Track56_49"
    INDEX 01 01:24:05
  TRACK 50 AUDIO
    TITLE "Disc1Track56_50"
    INDEX 01 01:25:30
  TRACK 51 AUDIO
    TITLE "Disc1Track56_51"
    INDEX 01 01:26:53
  TRACK 52 AUDIO
    TITLE "Disc1Track56_52"
    INDEX 01 01:28:01
  TRACK 53 AUDIO
    TITLE "Disc1Track56_53"
    INDEX 01 01:33:67
